<?xml version="1.0" encoding="UTF-8" standalone="no"?>
<!-- Created with Inkscape (http://www.inkscape.org/) -->

<svg
   xmlns:dc="http://purl.org/dc/elements/1.1/"
   xmlns:cc="http://creativecommons.org/ns#"
   xmlns:rdf="http://www.w3.org/1999/02/22-rdf-syntax-ns#"
   xmlns:svg="http://www.w3.org/2000/svg"
   xmlns="http://www.w3.org/2000/svg"
   xmlns:sodipodi="http://sodipodi.sourceforge.net/DTD/sodipodi-0.dtd"
   xmlns:inkscape="http://www.inkscape.org/namespaces/inkscape"
   width="225mm"
   height="150mm"
   viewBox="0 0 797.24407 531.49605"
   id="svg2"
   version="1.1"
   inkscape:version="0.91 r13725"
   sodipodi:docname="question.svg">
  <defs
     id="defs4" />
  <sodipodi:namedview
     id="base"
     pagecolor="#ffffff"
     bordercolor="#666666"
     borderopacity="1.0"
     inkscape:pageopacity="0"
     inkscape:pageshadow="2"
     inkscape:zoom="1"
     inkscape:cx="349.3644"
     inkscape:cy="252.38199"
     inkscape:document-units="px"
     inkscape:current-layer="layer1"
     showgrid="false"
     inkscape:window-width="1920"
     inkscape:window-height="1017"
     inkscape:window-x="-4"
     inkscape:window-y="-4"
     inkscape:window-maximized="1"
     inkscape:snap-bbox="true"
     inkscape:bbox-paths="true"
     inkscape:bbox-nodes="true"
     inkscape:snap-bbox-edge-midpoints="true"
     inkscape:snap-bbox-midpoints="true"
     inkscape:object-paths="true"
     inkscape:snap-intersection-paths="true"
     inkscape:object-nodes="true"
     inkscape:snap-smooth-nodes="true"
     inkscape:snap-midpoints="true"
     inkscape:snap-object-midpoints="true"
     inkscape:snap-center="true"
     inkscape:snap-text-baseline="true"
     inkscape:snap-page="true" />
  <metadata
     id="metadata7">
    <rdf:RDF>
      <cc:Work
         rdf:about="">
        <dc:format>image/svg+xml</dc:format>
        <dc:type
           rdf:resource="http://purl.org/dc/dcmitype/StillImage" />
        <dc:title></dc:title>
      </cc:Work>
    </rdf:RDF>
  </metadata>
  <g
     inkscape:label="Layer 1"
     inkscape:groupmode="layer"
     id="layer1"
     transform="translate(0,-520.86614)">
    <rect
       style="opacity:1;fill:#000000;fill-opacity:1;fill-rule:evenodd;stroke:none;stroke-width:4;stroke-linecap:round;stroke-linejoin:round;stroke-miterlimit:4;stroke-dasharray:none;stroke-opacity:1"
       id="rect4187"
       width="797.24408"
       height="531.49542"
       x="0"
       y="520.86615"
       ry="0" />
    <g
       transform="matrix(1.5552,0,0,1.5552,-35.319887,-546.10398)"
       id="layer1-3"
       inkscape:label="Layer 1">
      <text
         sodipodi:linespacing="125%"
         id="text4172"
         y="681.6734"
         x="191.22836"
         style="font-style:normal;font-variant:normal;font-weight:normal;font-stretch:normal;font-size:25px;line-height:125%;font-family:'AG Book Pro Regular';-inkscape-font-specification:'AG Book Pro Regular';letter-spacing:0px;word-spacing:0px;fill:#000000;fill-opacity:1;stroke:none;stroke-width:1px;stroke-linecap:butt;stroke-linejoin:miter;stroke-opacity:1"
         xml:space="preserve"><tspan
           y="681.6734"
           x="191.22836"
           id="tspan4174"
           sodipodi:role="line" /></text>
      <g
         id="g4253">
        <path
           inkscape:connector-curvature="0"
           id="path4187-6"
           d="m 193.16216,721.70329 c -10.49558,0.51864 -19.91675,10.11489 -29.22765,10.41388 -8.92442,0.28658 -16.50599,-8.4633 -27.79109,-10.39603 -16.36198,2.4387 -26.61293,32.10096 -31.12918,46.12851 -32.77975,6.3474 -54.537706,21.08668 -2.7823,31.97697 0.14675,9.99448 0.62737,19.16546 3.3446,25.94684 l -34.551115,0.0638 14.129925,35.47891 c -31.611191,17.82943 -34.445011,59.35129 -35.180449,84.27671 -0.986744,33.44353 20.658176,46.33396 41.327887,46.36857 l 144.772502,0.24221 c 26.79317,0.0449 41.79191,-17.70066 42.48438,-42.59846 0.79502,-28.58473 -7.13778,-75.14533 -33.97149,-86.93357 l 12.66144,-36.92195 -34.07152,-0.0561 c 2.15429,-7.02912 3.43515,-14.83433 3.42679,-25.68679 52.57217,-12.46437 28.39435,-25.25792 -2.25461,-31.69312 -7.85399,-16.38252 -12.46476,-41.33944 -31.18812,-46.61025 z m -62.41086,83.21917 c 4.55902,0.0315 9.48076,0.32113 13.30594,0.66881 8.48902,0.77154 16.72118,2.97422 20.22871,2.85312 5.54593,-0.19151 12.82042,-2.47407 21.71609,-2.96668 11.37417,-0.62983 22.95426,-0.80239 24.57192,1.20247 1.03741,1.28571 -0.0231,3.57444 -0.0692,5.36184 l -1.90263,1.28031 c -2.46871,1.66076 -1.82481,21.31527 -21.27598,21.62147 -18.59836,0.29277 -17.59499,-19.096 -20.89536,-19.096 l -4.15128,0 c -3.46765,0 -1.24248,18.80032 -21.13756,19.096 -18.16658,0.26999 -19.4328,-20.45318 -21.06837,-21.72528 l -1.86802,-1.45279 c -0.0587,-1.66561 -1.04333,-4.54017 -0.13841,-5.25857 1.56062,-1.23899 6.82257,-1.62528 12.68415,-1.5847 z m -7.84785,62.4995 20.61475,10.38848 15.5827,20.77694 -15.42051,72.0705 -20.77694,-103.23592 z m 82.76175,0.0519 -20.77696,103.23592 -15.42049,-72.0705 15.5827,-20.77694 20.61475,-10.38848 z"
           style="color:#000000;clip-rule:nonzero;display:inline;overflow:visible;visibility:visible;opacity:1;isolation:auto;mix-blend-mode:normal;color-interpolation:sRGB;color-interpolation-filters:linearRGB;solid-color:#000000;solid-opacity:1;fill:#ffffff;fill-opacity:1;fill-rule:evenodd;stroke:#000000;stroke-width:0.82659233px;stroke-linecap:butt;stroke-linejoin:miter;stroke-miterlimit:4;stroke-dasharray:none;stroke-dashoffset:0;stroke-opacity:1;color-rendering:auto;image-rendering:auto;shape-rendering:auto;text-rendering:auto;enable-background:accumulate" />
      </g>
      <text
         sodipodi:linespacing="125%"
         id="text4287"
         y="906.60028"
         x="309.64059"
         style="font-style:italic;font-variant:normal;font-weight:normal;font-stretch:normal;font-size:272.58880615px;line-height:125%;font-family:sans-serif;-inkscape-font-specification:'sans-serif Italic';letter-spacing:0px;word-spacing:0px;fill:#ffffff;fill-opacity:1;stroke:none;stroke-width:1px;stroke-linecap:butt;stroke-linejoin:miter;stroke-opacity:1"
         xml:space="preserve"><tspan
           y="906.60028"
           x="309.64059"
           id="tspan4289"
           sodipodi:role="line">? </tspan></text>
    </g>
    <text
       xml:space="preserve"
       style="font-style:normal;font-weight:normal;font-size:7.5px;line-height:125%;font-family:sans-serif;letter-spacing:0px;word-spacing:0px;fill:#000000;fill-opacity:1;stroke:none;stroke-width:1px;stroke-linecap:butt;stroke-linejoin:miter;stroke-opacity:1"
       x="836.72723"
       y="552.47003"
       id="text3422"
       sodipodi:linespacing="125%"><tspan
         sodipodi:role="line"
         id="tspan3424"
         x="836.72723"
         y="552.47003" /></text>
    <text
       xml:space="preserve"
       style="font-style:normal;font-weight:normal;font-size:5px;line-height:125%;font-family:sans-serif;letter-spacing:0px;word-spacing:0px;fill:#000000;fill-opacity:1;stroke:none;stroke-width:1px;stroke-linecap:butt;stroke-linejoin:miter;stroke-opacity:1"
       x="843.38831"
       y="545.00037"
       id="text3430"
       sodipodi:linespacing="125%"><tspan
         sodipodi:role="line"
         id="tspan3432"
         x="843.38831"
         y="545.00037" /></text>
    <text
       xml:space="preserve"
       style="font-style:normal;font-weight:normal;font-size:5px;line-height:125%;font-family:sans-serif;letter-spacing:0px;word-spacing:0px;fill:#000000;fill-opacity:1;stroke:none;stroke-width:1px;stroke-linecap:butt;stroke-linejoin:miter;stroke-opacity:1"
       x="846.08356"
       y="549.69781"
       id="text3450"
       sodipodi:linespacing="125%"><tspan
         sodipodi:role="line"
         id="tspan3452"
         x="846.08356"
         y="549.69781" /></text>
    <g
       id="g4807"
       transform="matrix(0.64,0,0,0.64,506.38044,382.14736)">
      <text
         sodipodi:linespacing="125%"
         id="text3426"
         y="1042.7375"
         x="254.4167"
         style="font-style:normal;font-weight:normal;font-size:275.31332397px;line-height:125%;font-family:sans-serif;letter-spacing:0px;word-spacing:0px;fill:#ffb500;fill-opacity:1;stroke:none;stroke-width:1px;stroke-linecap:butt;stroke-linejoin:miter;stroke-opacity:1"
         xml:space="preserve"><tspan
           y="1042.7375"
           x="254.4167"
           id="tspan3428"
           sodipodi:role="line">Ϟ</tspan></text>
      <text
         sodipodi:linespacing="125%"
         id="text4290"
         y="898.34961"
         x="314.80725"
         style="font-style:normal;font-weight:normal;font-size:78.66094208px;line-height:125%;font-family:sans-serif;letter-spacing:0px;word-spacing:0px;fill:#ffffff;fill-opacity:1;stroke:none;stroke-width:1px;stroke-linecap:butt;stroke-linejoin:miter;stroke-opacity:1"
         xml:space="preserve"><tspan
           y="898.34961"
           x="314.80725"
           id="tspan4292"
           sodipodi:role="line">➠</tspan></text>
    </g>
  </g>
</svg>
